<svg xmlns="http://www.w3.org/2000/svg" width="18.844" height="18.969" viewBox="0 0 18.844 18.969">
  <defs>
    <style>
      .cls-1 {
        fill: #5c5d60;
        fill-rule: evenodd;
      }
    </style>
  </defs>
  <path id="icon_saerch.svg" class="cls-1" d="M114.388,585.245l-4.51-4.542a1.517,1.517,0,0,0-.166-0.136,7.445,7.445,0,1,0-6.251,3.423,7.4,7.4,0,0,0,4.063-1.217,1.6,1.6,0,0,0,.132.166l4.508,4.542a1.567,1.567,0,0,0,2.224,0,1.6,1.6,0,0,0,0-2.238m-10.927-3.628a5.141,5.141,0,1,1,5.1-5.14,5.127,5.127,0,0,1-5.1,5.14" transform="translate(-96 -568.969)"/>
</svg>
