<svg fill="none" height="43" viewBox="0 0 236 43" width="236" xmlns="http://www.w3.org/2000/svg" xmlns:xlink="http://www.w3.org/1999/xlink"><clipPath id="a"><path d="m0 0h235.99v42.89h-235.99z"/></clipPath><g clip-path="url(#a)"><path d="m155.34 36.8302c.03.25-.08.39-.33.42-.19.02-.37.04-.56.07.08.17.12.33.12.49 0 .5-.28.77-.84.81-1.74.15-3.31.23-4.73.23-4.81 0-8.24-1-10.29-3-1.15 1.72-2.45 2.83-3.91 3.33-.14.05-.26.03-.35-.05s-.14-.18-.14-.3c0-.14.05-.25.16-.33 1.21-.82 2.27-2.14 3.19-3.96-.67-1.06-1.16-2.52-1.47-4.4-.05-.29.08-.44.37-.44.17 0 .29.09.35.26.4 1.21.87 2.26 1.4 3.14.71-1.77 1.12-3.72 1.23-5.84h-2.19l-.19.51c-.12.36-.37.54-.75.54-.22 0-.4-.08-.56-.23-.16-.16-.23-.34-.23-.56 0-.09.02-.19.05-.28l2.3-6.59h-3.14c-.33 0-.49-.17-.49-.51s.16-.51.49-.51h3.54c.23-.31.54-.4.91-.26.37.12.56.37.56.75 0 .09-.02.18-.05.26l-2.14 5.98h2.23c.17-.14.37-.21.6-.21.25 0 .47.09.66.27s.29.4.29.66c0 .28-.13.53-.4.74-.16 2.61-.69 4.85-1.61 6.73 1.69 1.66 4.56 2.49 8.61 2.49 1.96 0 4.24-.18 6.84-.54.25-.03.39.08.42.33zm-.02-13.41c0 .56-.29.84-.86.84h-2.12v3.05c0 .51-.26.77-.77.77-.37 0-.61-.18-.72-.54h-3.14v2.1h4.38c.08-.47.35-.7.81-.7.23 0 .43.08.59.24s.24.36.24.59c0 .56-.3.84-.91.84h-5.12v2.05h5.26c.05-.53.34-.79.88-.79.23 0 .44.09.62.26s.27.38.27.63c0 .59-.3.88-.91.88h-6.12v1.86c0 .5-.25.75-.74.75s-.75-.25-.75-.75v-1.86h-4.45c-.33 0-.49-.16-.49-.49s.16-.49.49-.49h4.45v-2.05h-3.61c-.31 0-.47-.16-.47-.49s.15-.49.47-.49h3.61v-2.1h-3.44c-.33 0-.49-.16-.49-.49s.16-.49.49-.49h3.44v-2.3h-4.77c-.33 0-.49-.16-.49-.49s.16-.49.49-.49h4.77v-2.21h-3.44c-.33 0-.49-.16-.49-.49s.16-.49.49-.49h3.44v-1.35c0-.5.25-.74.75-.74s.74.25.74.74v1.35h3.19c.15-.26.38-.4.67-.4.51 0 .77.26.77.77v2.82h1.33c.08-.47.36-.7.84-.7.22 0 .41.08.57.24s.24.36.24.59zm-4.52-.14v-2.21h-3.1v2.21zm0 3.28v-2.3h-3.1v2.3z" fill="#4c4948"/><path d="m180.8 32.5c0 .23-.09.43-.26.6s-.38.26-.63.26h-7.56c1.72 1.82 4.31 2.97 7.75 3.47.25.03.35.17.3.42-.03.25-.17.36-.42.33-.17-.03-.36-.06-.56-.09.03.11.05.22.05.33 0 .22-.08.4-.24.56-.16.15-.35.23-.57.23-1.06 0-2.35-.57-3.89-1.72-1.33-.99-2.37-2.01-3.12-3.05v4.68c0 .23-.08.43-.24.58s-.35.23-.57.23c-.23 0-.43-.08-.59-.23-.16-.16-.24-.35-.24-.58v-4.52c-2.34 2.51-5.08 4.13-8.22 4.84-.31.06-.47-.06-.47-.37 0-.17.08-.29.26-.35 1.23-.48 2.44-1.16 3.63-2.02 1.19-.87 2.17-1.78 2.93-2.72h-7.05c-.33 0-.49-.16-.49-.49s.16-.49.49-.49h8.91v-1.4c0-.23.08-.43.24-.58s.36-.23.59-.23c.22 0 .41.08.57.23.16.16.24.35.24.58v1.4h7.38c.06-.51.36-.77.88-.77.25 0 .46.09.63.26s.26.38.26.63zm-10.5-11.52c0 .22-.08.41-.24.57s-.36.24-.59.24h-3.07c.85.57 1.28 1.13 1.28 1.68 0 .23-.08.43-.24.61s-.37.26-.62.26c-.26 0-.48-.1-.65-.31s-.23-.45-.19-.71c-.2-.51-.4-.95-.61-1.3-.05-.06-.06-.13-.05-.21h-.91c-.85.93-1.75 1.73-2.68 2.4-.09.06-.18.09-.26.09-.25 0-.37-.12-.37-.37 0-.09.04-.19.12-.28 1.58-1.85 2.74-3.61 3.47-5.28.17-.39.47-.58.88-.58.26 0 .49.1.68.3s.28.43.28.7c0 .36-.15.63-.44.81-.23.36-.52.77-.86 1.23h3.49c.09-.42.35-.63.77-.63.23 0 .43.08.58.23.16.16.23.34.23.56zm-.54 3.89c0 .5-.25.75-.75.75h-2.49v2.47c.7-.14 1.34-.29 1.93-.44.33-.09.49.03.49.37 0 .16-.09.26-.26.33-1.75.68-3.56 1.31-5.42 1.89-.19.33-.46.49-.81.49-.19 0-.36-.05-.54-.16-.29-.19-.44-.45-.44-.79 0-.56.27-.88.81-.95.95-.12 1.85-.26 2.72-.42v-2.77h-2.4c-.33 0-.49-.16-.49-.47s.16-.49.49-.49h5.73c.09-.34.32-.51.67-.51.5 0 .75.24.75.72zm11.17 4.47c0 .6-.32.91-.95.91h-3.47c-.47 0-.85-.16-1.14-.48s-.44-.74-.44-1.27l-.02-3.05h-2.82c-.08 2.53-1.45 4.23-4.12 5.1-.06.03-.12.05-.16.05-.23 0-.35-.12-.35-.37 0-.15.08-.28.23-.37 1.88-1.06 2.82-2.48 2.82-4.26 0-.19 0-.38-.02-.58-.03-.29.04-.53.21-.71s.38-.27.63-.27c.36 0 .62.17.79.51h3.05c.14-.14.31-.21.51-.21.53 0 .79.26.79.77v3.33c0 .17.08.26.26.26h2.37v-1.05c0-.25.12-.37.37-.37s.37.12.37.37v.81c.06-.02.13-.02.21-.02.25 0 .46.09.63.26s.26.39.26.65zm-.91-8.38c0 .23-.08.43-.24.59s-.36.24-.59.24h-3.38c.76.43 1.14.89 1.14 1.37 0 .26-.11.49-.33.66-.22.18-.46.24-.72.17-.5-.09-.73-.4-.7-.91-.22-.43-.47-.87-.77-1.3h-1.84c-.57.84-1.18 1.59-1.82 2.26-.08.08-.17.12-.28.12-.25 0-.37-.12-.37-.35 0-.08.02-.15.05-.21 1.09-1.86 1.87-3.51 2.35-4.96.14-.43.44-.65.91-.65.42 0 .71.19.88.56.06.14.09.28.09.42 0 .43-.22.73-.65.88-.14.28-.32.6-.54.95h5.14c.08-.47.35-.7.81-.7.23 0 .43.08.59.24s.24.36.24.59zm-5.68 7.4c0 .22-.08.4-.23.56s-.34.23-.56.23c-.25 0-.45-.09-.62-.28-.16-.19-.22-.4-.17-.63-.26-.45-.46-.77-.58-.95-.06-.08-.09-.15-.09-.23 0-.12.05-.22.15-.3s.22-.1.36-.07c1.16.42 1.75.98 1.75 1.68z" fill="#4c4948"/><path d="m194.81 22.6101c0 .23-.09.43-.26.59s-.37.24-.61.24h-7.42c-.33 0-.49-.16-.49-.49s.16-.49.49-.49h6.61c.08-.47.36-.7.84-.7.23 0 .43.08.59.24s.24.36.24.59zm-1.33 2.82c0 .22-.08.4-.23.56-.16.16-.34.23-.56.23h-5.21c-.33 0-.49-.16-.49-.49s.16-.49.49-.49h4.42c.09-.4.36-.6.79-.6.22 0 .4.08.56.23.15.16.23.34.23.56zm0 2.82c0 .53-.26.79-.79.79h-5.12c-.33 0-.49-.16-.49-.49s.16-.49.49-.49h4.35c.09-.4.35-.6.77-.6.22 0 .4.08.56.23.15.16.23.34.23.56zm.28-8.59c0 .23-.09.43-.26.61-.17.17-.37.26-.61.26h-5.14c-.31 0-.47-.16-.47-.49s.15-.49.47-.49h4.35c.08-.48.35-.72.81-.72.23 0 .43.08.59.24s.24.36.24.59zm-.21 17.48c0 .51-.26.77-.79.77-.5 0-.75-.25-.77-.74h-3.14v.88c0 .22-.08.4-.23.56-.16.16-.34.23-.56.23-.51 0-.77-.26-.77-.79v-6.42c0-.53.26-.79.79-.79.25 0 .45.1.61.3h3.47c.15-.22.36-.33.63-.33.51 0 .77.26.77.77v5.56zm-1.56-.88v-4.21h-3.14v4.21zm14.87.86c-.02.25-.15.36-.4.35-.23-.02-.47-.04-.7-.07.05.11.07.22.07.35 0 .25-.1.46-.29.63s-.43.22-.71.16c-1.94-.39-3.6-1.3-4.98-2.72-1.83 1.82-3.9 2.99-6.19 3.54-.33.08-.49-.05-.49-.37 0-.14.08-.25.23-.33 2.08-.96 3.89-2.31 5.45-4.05-1.04-1.47-1.72-3.06-2.05-4.77h-1.28c-.33 0-.49-.16-.49-.49s.16-.49.49-.49h6.84c.19-.17.41-.26.67-.26.28 0 .52.1.72.29s.3.43.3.71c0 .42-.19.72-.58.91-.62 1.44-1.47 2.82-2.56 4.14 1.57 1.23 3.43 1.92 5.59 2.07.25.02.36.15.35.4zm-.02-11.5c0 .28-.1.51-.31.7s-.45.28-.73.28h-3.21c-1.2 0-1.79-.63-1.79-1.89v-4.14h-2.28c.08 3.51-.86 5.87-2.82 7.1-.08.05-.15.07-.21.07-.25 0-.37-.13-.37-.4 0-.12.05-.23.16-.33.65-.76 1.1-1.65 1.34-2.67s.34-2.43.29-4.25c-.02-.31.07-.55.26-.73s.4-.27.65-.27c.36 0 .61.16.77.49h2.28c.14-.29.38-.44.72-.44.54 0 .81.26.81.79v4.77c0 .2.09.3.28.3h2.21v-1.14c0-.25.12-.37.37-.37s.37.12.37.37v.81c.08-.02.16-.02.23-.02.26 0 .49.09.69.28.19.19.29.41.29.68zm-4.96 4.21h-4.28c.42 1.37 1.12 2.6 2.12 3.7.93-1.23 1.65-2.46 2.17-3.7z" fill="#4c4948"/><path d="m222.46 22.66c0 .22-.08.41-.24.57s-.36.24-.59.24h-9.71c-.33 0-.49-.16-.49-.49s.16-.47.49-.47h8.87c.08-.45.36-.68.84-.68.23 0 .43.08.59.23.16.16.24.35.24.58zm-2.05-3c0 .23-.08.43-.24.59s-.36.24-.59.24h-6.28c-.33 0-.49-.16-.49-.49s.16-.49.49-.49h5.45c.08-.47.36-.7.84-.7.22 0 .41.08.58.24s.26.36.26.59zm-.05 6.01c0 .22-.08.4-.23.56s-.34.23-.56.23h-6.15c-.33 0-.49-.16-.49-.49s.16-.49.49-.49h5.38c.09-.4.35-.61.77-.61.22 0 .4.08.56.23.15.16.23.34.23.56zm.21 2.91c0 .22-.07.4-.22.56s-.33.23-.55.23h-6.26c-.33 0-.49-.16-.49-.49s.16-.49.49-.49h5.45c.09-.4.36-.6.79-.6.22 0 .4.08.56.23.15.16.23.34.23.56zm.16 9.47c0 .23-.08.43-.24.59s-.36.24-.59.24c-.22 0-.41-.08-.57-.24s-.24-.36-.24-.59v-.33h-4.31v.88c0 .22-.08.41-.24.57s-.35.24-.57.24c-.23 0-.43-.08-.59-.23s-.24-.35-.24-.58v-6.56c0-.56.27-.84.81-.84.26 0 .49.11.67.33h4.63c.19-.22.41-.33.68-.33.54 0 .81.28.81.84v6zm-1.65-1.26v-4.33h-4.31v4.33zm14.08-11.01c0 .62-.32.93-.95.93h-4.03v11.85c0 .23-.08.43-.24.59s-.36.24-.59.24c-.25 0-.45-.08-.62-.24-.16-.16-.24-.36-.24-.59v-11.85h-4.19c-.34 0-.51-.16-.51-.49s.17-.51.51-.51h4.19v-6.63c0-.23.08-.43.24-.61.16-.17.37-.26.62-.26.23 0 .43.09.59.26s.24.37.24.61v6.63h3.12c.05-.57.36-.86.93-.86.26 0 .48.09.66.28s.27.4.27.65z" fill="#4c4948"/><g fill="#7d7d7d"><path d="m68.7401 7.9399c0 .11-.04.2-.12.29s-.19.13-.31.13h-8.24c-.15 0-.23-.08-.23-.23s.08-.22.23-.22h3.83v-6.16h-3.23c-.15 0-.23-.08-.23-.23s.08-.23.23-.23h6.67c0-.11.05-.2.13-.28.08-.079998.18-.109998.29-.109998s.21.04.29.119998c.08.08.12.18.12.29 0 .12-.04.22-.13.31-.09.08-.19.12-.3.12h-3.1v6.16h3.26c0-.11.05-.21.13-.28s.17-.11.28-.11.21.04.29.12.12.18.12.29z"/><path d="m80.9101 5.75c0 .11-.04.2-.12.28s-.18.12-.29.12h-1.08v1.33c0 .09-.03.17-.1.24s-.15.1-.24.1-.17-.03-.24-.1-.1-.15-.1-.24v-.07h-2.06v1.5c0 .31-.15.46-.44.46-.12 0-.22-.04-.31-.13-.08-.09-.12-.19-.12-.3 0-.06.01-.12.03-.17h-.39c-.11 0-.16-.05-.16-.16s.05-.16.16-.16h.54v-1.04h-3.04c-.14 0-.21-.07-.21-.21s.07-.21.21-.21h3.04v-.84h-4.15c-.14 0-.21-.07-.21-.21s.07-.21.21-.21h4.15v-.83h-3.04c-.14 0-.21-.07-.21-.21s.07-.21.21-.21h3.04v-.75h-1.95c-.02.2-.13.3-.34.3-.09 0-.17-.03-.24-.09s-.1-.14-.1-.24v-1.38c0-.23.11-.34.34-.34.1 0 .18.04.25.11h2.04v-.59h-3.75c-.14 0-.21-.07-.21-.21s.07-.21.21-.21h3.75v-.73c0-.1.03-.18.1-.25s.15-.1.24-.1c.1 0 .18.03.25.1s.1.15.1.25v.73h2.91c0-.12.04-.22.12-.3s.18-.12.29-.12c.12 0 .22.04.3.12s.12.18.12.3c0 .11-.04.21-.12.29s-.18.12-.3.12h-3.32v.59h2.06c.07-.07.15-.11.25-.11.23 0 .34.11.34.33v1.32c0 .23-.11.34-.34.34-.17 0-.27-.08-.32-.24h-1.99v.75h2.16c.07-.07.15-.1.24-.1.23 0 .34.11.34.34v1.01h.7c0-.11.04-.2.12-.27s.17-.11.27-.11c.11 0 .21.04.29.12s.11.17.11.29zm-4.92-2.43v-.82h-1.95v.82zm2.66 0v-.82h-1.97v.82zm.09 2.41v-.83h-2.06v.83zm0 1.26v-.84h-2.06v.84z"/><path d="m90.8401 7.72988c0 .25-.15.46-.46.61-.27.14-.6.21-.97.21-1.31 0-1.96-.64-1.96-1.93 0-.07 0-.18.02-.31-.49-.06-.87-.19-1.15-.4-.33-.24-.49-.56-.47-.96.02-.33.13-.64.33-.91.11-.15.32-.37.65-.68-.02 0-.07 0-.14-.02-.41-.05-.77-.21-1.08-.46l-.11-.09c-.1-.09-.11-.18-.03-.28.08-.09.17-.1.27-.02.17.13.6.22 1.31.29.46.04.71.15.76.34.03.12-.02.24-.15.35-.05.05-.19.15-.44.3-.62.41-.95.81-.98 1.2-.03.37.41.59 1.32.65.09-.67.2-1.38.33-2.13.12-.76.21-1.29.25-1.62 0-.52-.12-.870004-.35-1.060004-.1-.08-.11-.17-.03-.27s.17-.11.27-.03l.05.04c.51.41.77.750004.77 1.000004 0 .11-.09.66-.28 1.67-.35 1.91-.53 3.03-.53 3.36 0 .56.14.94.43 1.15.19.14.5.21.91.21s.64-.15.64-.45c0-.27-.16-.7-.47-1.29-.22-.43-.46-.83-.71-1.2-.07-.11-.06-.2.05-.27.1-.07.19-.05.26.04 1.13 1.39 1.7 2.38 1.7 2.96z"/><path d="m103.04 1.60014c0 .11-.04.2-.11.27s-.16.11-.27.11c-.01 0-.03 0-.05-.01-.91.21-1.58.58-2.01 1.11-.34.41-.57.96-.68 1.63-.07.39-.1.94-.1 1.66v.05c0 .35.12.61.35.8.33.27.9.42 1.72.45.04-.01.08-.02.12-.02.1 0 .19.04.26.11s.11.16.11.26-.04.19-.12.26c-.08.08-.16.11-.25.1-1.03-.04-1.76-.22-2.19-.55-.35-.27-.56-.69-.61-1.25-.01-.15-.02-.32-.02-.5 0-1.31.33-2.41.99-3.28.13-.17.26-.32.4-.47-.46.15-1.03.36-1.71.65-.47.2-.76.3-.87.3-.21 0-.41-.06-.6-.18-.09-.06-.26-.19-.49-.39-.1-.09-.11-.18-.03-.28.09-.09.18-.1.27-.02.15.12.38.17.67.16.14 0 .67-.15 1.59-.44 1.04-.33 1.94-.59 2.71-.8.27-.07.44-.11.51-.11.11-.01.21.02.29.09s.12.17.12.28zm.26 2.84c.01.21-.09.32-.3.33-.21 0-.32-.09-.33-.3-.16-.23-.37-.42-.64-.59-.07-.04-.1-.1-.07-.18.03-.1.09-.14.2-.11.49.15.84.37 1.07.66.05.06.07.12.07.19zm.95-.69c.01.21-.09.33-.3.34-.21 0-.33-.1-.34-.31-.21-.26-.44-.47-.69-.62-.07-.05-.1-.11-.07-.19.03-.1.1-.13.2-.1.6.18.99.43 1.16.74.03.04.04.09.04.14z"/><path d="m115.11 3.72006c0 .15-.07.25-.21.32-.3.15-.62.29-.95.42.55.91.83 1.53.83 1.87 0 .06 0 .12-.02.17-.05.23-.16.35-.33.35-.03 0-.05 0-.07 0-.55-.21-1.12-.31-1.73-.31-.68 0-1.17.07-1.48.21s-.46.35-.46.65.28.52.85.65c.35.08.75.12 1.2.12.17 0 .33 0 .48-.02.06-.03.12-.04.19-.04.11 0 .2.04.27.11s.12.16.12.27-.04.2-.11.27-.16.11-.27.12c-.17 0-.33.01-.49.01-1.17 0-1.98-.21-2.43-.64-.25-.23-.37-.52-.37-.85 0-.47.28-.83.85-1.08.47-.21 1.07-.31 1.8-.31.48 0 .87.03 1.16.09.03-.28-.15-.76-.56-1.43-.9.29-1.6.44-2.1.44-.73 0-1.09-.24-1.09-.71 0-.12.06-.18.18-.19.13 0 .19.06.2.19.03.09.23.13.6.13.43 0 1.05-.14 1.86-.43-.21-.37-.44-.78-.68-1.24-.26.09-.59.29-.98.58-.05.05-.14.11-.25.19-.06.05-.13.06-.2.02-.07-.03-.11-.09-.11-.17 0-.07.12-.19.36-.37-.13.01-.25.02-.36.02-.55 0-.97-.12-1.26-.35-.07-.05-.09-.13-.06-.22.05-.12.13-.16.25-.11.2.08.45.12.74.12.49 0 1.01-.1 1.56-.3l-.32-.63c-.27-.53-.6-.770001-.99-.730001-.13.01-.2-.04-.21-.17 0-.07.02-.13.07-.18.21-.17.41-.25.58-.25.33 0 .63.28.91.830001.15.29.31.59.48.91.11-.05.22-.11.33-.17.07-.09.17-.13.29-.13.1 0 .19.04.26.1.07.07.11.16.11.25 0 .14-.08.26-.24.36-.04.03-.18.09-.42.19.25.46.49.87.7 1.23.29-.11.56-.23.81-.36.08-.11.19-.17.33-.17.1 0 .19.04.26.11.08.07.12.16.12.26z"/><path d="m126.8 6.36979c0 .55-.21 1.03-.63 1.42-.46.43-1.07.65-1.84.65-.43 0-.79-.1-1.08-.29-.29-.19001-.43-.43001-.43-.72001 0-.18.08-.33999.24-.48999.23-.23001.54-.33001.92-.30001.57.04.97.39001 1.21 1.05001.58-.27.87-.71.87-1.32 0-.84-.38-1.26-1.14-1.26-.61 0-1.21.29-1.8.86999-.43.42001-.77.89001-1.02 1.40001-.07.13-.16.16-.29.07-.16-.12-.25-.26-.27-.42-.01-.11.04-.26001.16-.43001.1-.13.2-.25.31-.37 1.67-2.80999 2.55-4.27999 2.65-4.39999.02-.02.03-.05.02-.09-.24.17-.52.33-.85.49-.41.21-.71.32-.9.32-.29 0-.56-.22-.83-.67-.07-.11-.04-.2.07-.26.07-.05.15-.04.22.01.2.17.38.26.55.26.09 0 .36-.11.8-.32s.7-.34.78-.41c.1-.09.25-.13.44-.13.17 0 .33.05.49.16s.24.24.23.4c0 .08-.03.15-.1.22l-.17.17c-.04.05-.26.38-.67.98l-1.55 2.25999c.64-.46 1.26-.68999 1.86-.68999.56 0 1 .2 1.32.59.29.35.43.76.43 1.25zm-2.21 1.5c-.08-.39-.29-.63-.62-.72-.21-.06-.38-.04-.51.06-.08.06-.12.12999-.12.21999 0 .11.07.21.21.3.17.11001.42.16.73.16.09 0 .2.00001.31-.01999z"/><path d="m135.67 2.00012c0 .1-.04.19-.11.25-.07.07-.16.1-.26.1h-3.19c-.14 0-.21-.07-.21-.21s.07-.21.21-.21h2.84c.03-.2.15-.3.36-.3.1 0 .19.04.26.1.07.07.1.16.1.26zm-.57 1.21c0 .09-.03.17-.1.24s-.15.1-.24.1h-2.24c-.14 0-.21-.07-.21-.21s.07-.21.21-.21h1.9c.04-.17.15-.26.34-.26.09 0 .17.03.24.1s.1.15.1.24zm0 1.21c0 .23-.11.34-.34.34h-2.2c-.14 0-.21-.07-.21-.21s.07-.21.21-.21h1.87c.04-.17.15-.26.33-.26.09 0 .17.03.24.1s.1.15.1.24zm.12-3.690003c0 .1-.04.19-.11.26-.07.070003-.16.110003-.26.110003h-2.21c-.13 0-.2-.07-.2-.210003 0-.14.07-.21.2-.21h1.87c.03-.21.15-.31.35-.31.1 0 .19.04.25.1.07.07.1.16.1.26zm-.09 7.510003c0 .22-.11.33-.34.33-.21 0-.32-.11-.33-.32h-1.35v.38c0 .09-.03.17-.1.24s-.15.1-.24.1c-.22 0-.33-.11-.33-.34v-2.76c0-.23.11-.34.34-.34.11 0 .19.04.26.13h1.49c.07-.09.16-.14.27-.14.22 0 .33.11.33.33zm-.67-.38v-1.81h-1.35v1.81zm6.39.37c0 .11-.06.16-.17.15-.1 0-.2-.02-.3-.03.02.05.03.1.03.15 0 .11-.04.2-.12.27s-.19.1-.3.07c-.83-.17-1.55-.56-2.14-1.17-.79.78-1.67 1.29-2.66 1.52-.14.03-.21-.02-.21-.16 0-.06.03-.11.1-.14.89-.41 1.67-.99 2.34-1.74-.45-.63-.74-1.32-.88-2.05h-.55c-.14 0-.21-.07-.21-.21s.07-.21.21-.21h2.94c.08-.07.18-.11.29-.11.12 0 .22.04.31.12s.13.19.13.31c0 .18-.08.31-.25.39-.27.62-.63 1.21-1.1 1.78.67.53 1.47.82 2.4.89.11 0 .16.06.15.17zm0-4.94c0 .12-.04.22-.14.3-.09.08-.19.12-.31.12h-1.38c-.51 0-.77-.27-.77-.81v-1.78h-.98c.03 1.51-.37 2.52-1.21 3.05-.03.02-.06.03-.09.03-.11 0-.16-.06-.16-.17 0-.05.02-.1.07-.14.28-.33.47-.71.58-1.15.1-.44.15-1.04.12-1.820003 0-.13.03-.24.11-.31s.17-.12.28-.12c.15 0 .26.07.33.21h.98c.06-.13.16-.19.31-.19.23 0 .35.11.35.34v2.050003c0 .09.04.13.12.13h.95v-.49c0-.11.05-.16.16-.16s.16.05.16.16v.35h.1c.11 0 .21.04.29.12s.12.18.12.29zm-2.13 1.81h-1.84c.18.59.48 1.12.91 1.59.4-.53.71-1.06.93-1.59z"/><path d="m148.46 2.01986c0 .09-.04.17-.1.24s-.16.1-.26.1h-4.17c-.14 0-.21-.07-.21-.21s.07-.2.21-.2h3.81c.03-.19.15-.29.36-.29.1 0 .19.03.26.1s.1.15.1.25zm-.88-1.289997c0 .1-.03.19-.1.25-.07.069997-.15.099997-.25.099997h-2.7c-.14 0-.21-.07-.21-.209997 0-.14.07-.21.21-.21h2.34c.03-.2.15-.3.36-.3.09 0 .18.04.25.1.07.07.11.16.11.26zm-.02 2.579997c0 .09-.03.17-.1.24s-.15.1-.24.1h-2.64c-.14 0-.21-.07-.21-.21s.07-.21.21-.21h2.31c.04-.17.15-.26.33-.26.09 0 .17.03.24.1s.1.15.1.24zm.09 1.25c0 .09-.03.17-.1.24-.06.07-.14.1-.23.1h-2.69c-.14 0-.21-.07-.21-.21s.07-.21.21-.21h2.34c.04-.17.15-.26.34-.26.09 0 .17.03.24.1s.1.15.1.24zm.07 4.07c0 .1-.04.19-.1.25-.07.07-.15.1-.25.1-.09 0-.18-.03-.25-.1s-.1-.15-.1-.25v-.14h-1.85v.38c0 .09-.03.18-.1.25s-.15.1-.25.1-.18-.03-.25-.1-.1-.15-.1-.25v-2.82c0-.24.12-.36.35-.36.11 0 .21.05.29.14h1.99c.08-.09.18-.14.29-.14.23 0 .35.12.35.36v2.58zm-.71-.54v-1.86h-1.85v1.86zm6.05-4.73c0 .27-.14.4-.41.4h-1.73v5.09c0 .1-.04.19-.1.26-.07.07-.16.1-.26.1-.11 0-.19-.04-.26-.1s-.1-.16-.1-.26v-5.09h-1.8c-.15 0-.22-.07-.22-.21s.07-.22.22-.22h1.8v-2.849997c0-.1.03-.19.1-.26s.16-.11.26-.11.19.04.26.11.1.16.1.26v2.849997h1.34c.02-.25.15-.37.4-.37.11 0 .21.04.29.12s.11.17.11.28z"/><path d="m164.91 5.75c0 .11-.04.2-.12.28s-.18.12-.29.12h-1.08v1.33c0 .09-.03.17-.1.24s-.15.1-.24.1-.17-.03-.24-.1-.1-.15-.1-.24v-.07h-2.06v1.5c0 .31-.15.46-.44.46-.12 0-.22-.04-.31-.13-.08-.09-.12-.19-.12-.3 0-.06.01-.12.03-.17h-.39c-.11 0-.16-.05-.16-.16s.05-.16.16-.16h.54v-1.04h-3.04c-.14 0-.21-.07-.21-.21s.07-.21.21-.21h3.04v-.84h-4.15c-.14 0-.21-.07-.21-.21s.07-.21.21-.21h4.15v-.83h-3.04c-.14 0-.21-.07-.21-.21s.07-.21.21-.21h3.04v-.75h-1.95c-.02.2-.13.3-.34.3-.09 0-.17-.03-.24-.09s-.1-.14-.1-.24v-1.38c0-.23.11-.34.34-.34.1 0 .18.04.25.11h2.04v-.59h-3.75c-.14 0-.21-.07-.21-.21s.07-.21.21-.21h3.75v-.73c0-.1.03-.18.1-.25s.15-.1.24-.1c.1 0 .18.03.25.1s.1.15.1.25v.73h2.91c0-.12.04-.22.12-.3s.18-.12.29-.12c.12 0 .22.04.3.12s.12.18.12.3c0 .11-.04.21-.12.29s-.18.12-.3.12h-3.32v.59h2.06c.07-.07.15-.11.25-.11.23 0 .34.11.34.33v1.32c0 .23-.11.34-.34.34-.17 0-.27-.08-.32-.24h-1.99v.75h2.16c.07-.07.15-.1.24-.1.23 0 .34.11.34.34v1.01h.7c0-.11.04-.2.12-.27s.17-.11.27-.11c.11 0 .21.04.29.12s.11.17.11.29zm-4.92-2.43v-.82h-1.95v.82zm2.66 0v-.82h-1.97v.82zm.09 2.41v-.83h-2.06v.83zm0 1.26v-.84h-2.06v.84z"/><path d="m172.55 3.4999c0 .11-.04.21-.12.29s-.17.13-.28.13l-.69.53s-.06.03-.09.03c-.11 0-.17-.05-.17-.16 0-.02 0-.04.02-.07l.34-.66h-.98v4.98c0 .11-.04.21-.12.29s-.18.12-.29.12c-.12 0-.22-.04-.29-.12-.08-.08-.12-.18-.12-.29 0-.05.01-.11.03-.16h-.32c-.11 0-.17-.05-.17-.16s.06-.16.17-.16h.45v-3.07c-.54 1.18-1.17 2.07-1.89 2.67-.03.03-.07.04-.1.04-.11 0-.16-.05-.16-.16 0-.03 0-.07.03-.1.81-1.09 1.47-2.39 1.98-3.88h-1.83c-.14 0-.21-.07-.21-.21s.07-.21.21-.21h3.86c.09-.09.19-.13.31-.13s.22.04.31.14c.08.09.12.19.12.31zm-.74-2.46c0 .11-.04.21-.11.3-.08.09-.17.13-.29.14l-.88.74c.19.15.29.31.29.48 0 .22-.11.35-.32.4-.12.03-.23 0-.33-.07s-.16-.17-.17-.3c-.23-.29-.52-.58-.88-.88-.04-.03-.06-.07-.06-.12s.02-.1.06-.13.09-.04.15-.02c.39.13.73.28 1 .45l.52-.86h-2.34c-.14 0-.21-.07-.21-.209998 0-.14.07-.21.21-.21h2.6c.09-.1.2-.15.33-.15.12 0 .22.04.31.13s.13.19.13.309998zm4.08 5.1c-.15 1.19-.3 1.96-.45 2.31-.19.46-.53.69-1.01.7-.12 0-.22-.04-.3-.12s-.12-.17-.12-.27c0-.07.02-.14.06-.21h-.28c-.11-.02-.16-.08-.15-.19 0-.1.06-.15.17-.14l.92.06c.19-.25.34-.91.46-1.97h-1.42c-.25.83-.61 1.48-1.06 1.95-.41.42-.93.72-1.57.9-.05.01-.1 0-.14-.03-.04-.04-.06-.08-.06-.12 0-.07.03-.11.09-.14.95-.5 1.63-1.35 2.02-2.55h-1.72c-.14 0-.21-.07-.21-.21s.07-.21.21-.21h1.84c.07-.27.11-.53.13-.78s.15-.38.4-.38c.11 0 .21.04.28.12s.11.17.11.28-.04.2-.12.28c-.03.18-.06.34-.09.48h1.41c.07-.09.15-.13.26-.13.1 0 .19.04.25.11.07.07.1.16.08.27zm1.03-1.59c-.02.11-.08.15-.19.13-.05-.01-.13-.03-.24-.05 0 .03.01.07.01.1 0 .1-.04.19-.1.26-.07.07-.16.11-.26.11-.06 0-.12-.01-.17-.04-.66-.29-1.24-.68-1.73-1.18-.75.76-1.62 1.28-2.6 1.55-.13.03-.2-.02-.2-.16 0-.07.03-.11.1-.14.81-.34 1.56-.92 2.26-1.75-.31-.41-.54-.84-.68-1.27-.21.35-.4.63-.57.84-.03.04-.07.06-.12.06-.11 0-.17-.05-.17-.15 0-.03 0-.05.01-.07.37-.91.65-1.68.83-2.329998.06-.21.2-.31.42-.31.12 0 .22.04.3.12s.12.19.12.31c0 .19-.09.32-.26.39-.07.209998-.18.429998-.31.679998h2.45c0-.11.04-.2.12-.28s.17-.12.27-.12.2.04.28.12.12.17.12.28-.04.21-.11.29-.17.11-.29.11h-.69c-.21.45-.51.91-.88 1.37.61.47 1.32.78 2.14.94.11.02.15.08.13.19zm-2.2-2.5h-1.25c.17.33.39.63.66.91.22-.3.42-.6.59-.91z"/><path d="m183.7 5.50014c0 .23-.12.34-.35.34-.17 0-.27-.08-.32-.25h-1.8c0 1.46-.38 2.62-1.15 3.47-.03.04-.08.06-.13.06-.11 0-.17-.05-.17-.15 0-.02 0-.04.02-.07.28-.53.48-1.08.59-1.64.1-.53.15-1.23.15-2.09v-2.38c0-.24.13-.36.38-.36.15 0 .25.07.32.2h1.85c.07-.09.16-.13.27-.13.23 0 .34.11.34.34zm.35-4.710003c0 .11-.04.210003-.12.280003s-.17.11-.27.11h-3.48c-.15 0-.22-.07-.22-.220003 0-.15.07-.22.22-.22h3.12c.03-.22.16-.33.38-.33.1 0 .19.04.26.12s.11.17.11.27zm-1.03 4.380003v-2.12h-1.77v2.12zm5.89-1.68c0 .11-.04.21-.11.29s-.17.11-.29.11h-1.13v5.04c0 .09-.04.18-.1.25-.07.07-.15.1-.25.1s-.19-.04-.25-.1c-.07-.07-.1-.15-.1-.25v-5.04h-1.41c-.04 1.27-.25 2.26-.63 2.99-.39.75-1.04 1.39-1.97 1.94-.03.02-.07.03-.1.03-.1 0-.15-.05-.15-.16 0-.05.02-.09.05-.12.86-.77 1.42-1.56 1.69-2.35.25-.75.38-1.96.38-3.63v-1.22c0-.11.04-.2.12-.27s.17-.1.28-.1c.16 0 .27.07.34.22.74-.18 1.47-.390003 2.19-.620003.06-.14.18-.21.36-.21.11 0 .21.04.29.12s.12.18.12.29-.04.210003-.11.280003-.18.12-.31.15c-.8.13-1.65.23-2.54.31v1.94h2.84c0-.11.05-.19.12-.26.08-.07.17-.11.27-.11.11 0 .21.04.29.12s.11.17.11.27z"/></g><path d="m73.35 25.3402v-9.1h2.8101v22.56h-2.8101v-10.83h-10.7399v10.83h-2.8101v-22.56h2.8101v9.1z" fill="#4c4948"/><path d="m89.0199 33.15-2.57 5.66h-3.02l10.77-23.52 10.7701 23.52h-3.02l-2.5701-5.66h-10.35zm5.18-11.7-4.01 9.13h8.02z" fill="#4c4948"/><path d="m115.14 36.2302h9.85v2.57h-12.67v-22.56h2.81v19.99z" fill="#4c4948"/><path d="m235.99 41.5898h-235.99v1.3h235.99z" fill="#7d7d7d"/><path d="m26.34 1.02002-21.31998 15.75998v26.11h42.64998v-26.11zm-18.69998 40.55998v-23.49l18.69998-13.77998 18.71 13.77998v23.49z" fill="#7d7d7d"/><path d="m17.18 23.6499h-3.95v3.93h3.95z" fill="#f3a7ac"/><path d="m17.18 23.6499h-3.95v3.93h3.95z" stroke="#f7cbdf" stroke-linecap="round" stroke-linejoin="round" stroke-width=".03"/><path d="m21.92 23.6499h-3.95v3.93h3.95z" fill="#f3a7ac"/><path d="m21.92 23.6499h-3.95v3.93h3.95z" stroke="#f7cbdf" stroke-linecap="round" stroke-linejoin="round" stroke-width=".03"/><path d="m17.18 28.3901h-3.95v3.93h3.95z" fill="#f3a7ac"/><path d="m17.18 28.3901h-3.95v3.93h3.95z" stroke="#f7cbdf" stroke-linecap="round" stroke-linejoin="round" stroke-width=".03"/><path d="m21.92 28.3901h-3.95v3.93h3.95z" fill="#f3a7ac"/><path d="m21.92 28.3901h-3.95v3.93h3.95z" stroke="#f7cbdf" stroke-linecap="round" stroke-linejoin="round" stroke-width=".03"/></g></svg>